<svg width="352" height="259" viewBox="0 0 352 259" fill="none" xmlns="http://www.w3.org/2000/svg">
<mask id="mask0" mask-type="alpha" maskUnits="userSpaceOnUse" x="0" y="0" width="352" height="259">
<rect width="352" height="259" fill="#C4C4C4"/>
</mask>
<g mask="url(#mask0)">
<circle cx="177" cy="176" r="175" fill="white"/>
<path d="M342 176C342 267.127 268.127 341 177 341C85.873 341 12 267.127 12 176C12 84.873 85.873 11 177 11C268.127 11 342 84.873 342 176Z" fill="#00418C"/>
<path d="M299.827 176C299.827 243.836 244.836 298.827 177 298.827C109.164 298.827 54.1725 243.836 54.1725 176C54.1725 108.164 109.164 53.1725 177 53.1725C244.836 53.1725 299.827 108.164 299.827 176Z" fill="#750000"/>
<path fill-rule="evenodd" clip-rule="evenodd" d="M177 297.07C243.865 297.07 298.07 242.865 298.07 176C298.07 109.135 243.865 54.9297 177 54.9297C110.135 54.9297 55.9297 109.135 55.9297 176C55.9297 242.865 110.135 297.07 177 297.07ZM177 298.827C244.836 298.827 299.827 243.836 299.827 176C299.827 108.164 244.836 53.1725 177 53.1725C109.164 53.1725 54.1725 108.164 54.1725 176C54.1725 243.836 109.164 298.827 177 298.827Z" fill="white"/>
<path d="M98.9271 197.82H93.5335L95.7201 230.405H99.0729L103.154 223.277C107.722 226.962 112.192 229.581 116.565 231.133C121.036 232.684 126.041 233.46 131.58 233.46C137.411 233.46 142.756 232.684 147.615 231.133C152.474 229.484 156.653 227.205 160.151 224.296C163.65 221.386 166.371 217.895 168.314 213.822C170.258 209.749 171.23 205.288 171.23 200.439C171.23 196.657 170.647 193.262 169.481 190.256C168.314 187.153 166.322 184.243 163.504 181.528C160.686 178.715 156.896 175.952 152.134 173.236C147.372 170.424 141.395 167.417 134.204 164.217C130.025 162.374 126.527 160.629 123.708 158.98C120.89 157.235 118.606 155.537 116.857 153.889C115.108 152.143 113.844 150.349 113.067 148.506C112.289 146.567 111.901 144.433 111.901 142.106C111.901 137.16 113.65 133.232 117.149 130.323C120.647 127.414 125.36 125.959 131.288 125.959C137.508 125.959 142.804 127.898 147.177 131.778C151.648 135.657 155.049 141.572 157.382 149.525H162.775L161.172 120.577H157.819L154.029 127.123C150.239 124.116 146.497 121.934 142.804 120.577C139.111 119.219 135.127 118.54 130.851 118.54C126.089 118.54 121.716 119.316 117.732 120.867C113.747 122.322 110.297 124.456 107.382 127.268C104.466 129.983 102.183 133.232 100.531 137.014C98.9757 140.797 98.1982 144.918 98.1982 149.379C98.1982 153.161 98.6841 156.556 99.656 159.562C100.725 162.471 102.474 165.235 104.904 167.854C107.333 170.472 110.589 172.994 114.67 175.418C118.752 177.843 123.805 180.364 129.831 182.983C134.787 185.116 138.869 187.104 142.075 188.947C145.38 190.789 148.004 192.68 149.947 194.62C151.891 196.463 153.251 198.402 154.029 200.439C154.903 202.475 155.341 204.706 155.341 207.13C155.341 212.949 153.251 217.556 149.073 220.95C144.894 224.344 139.209 226.041 132.017 226.041C127.644 226.041 123.562 225.411 119.772 224.15C116.08 222.792 112.775 220.901 109.86 218.477C107.042 216.052 104.661 213.094 102.717 209.603C100.871 206.112 99.6074 202.184 98.9271 197.82Z" fill="white"/>
<path d="M186.19 124.513C191.911 123.264 197.32 121.755 202.416 119.985L202.348 173.818H212.799C222.517 173.818 229.709 171.975 234.373 168.29C239.135 164.508 241.516 158.35 241.516 149.816C241.516 141.572 239.621 135.705 235.831 132.214C232.138 128.626 226.307 126.832 218.338 126.832H206.512V119.995H218.338C231.749 119.995 242.099 122.468 249.388 127.414C256.774 132.359 260.466 139.245 260.466 148.07C260.466 153.21 259.64 157.816 257.988 161.89C256.336 165.963 253.712 169.405 250.117 172.218C246.618 175.03 242.002 177.212 236.268 178.764C230.632 180.316 223.732 181.091 215.569 181.091H202.449V209.167C202.449 212.755 202.644 215.713 203.032 218.04C203.518 220.271 204.442 222.017 205.802 223.277C207.26 224.538 209.301 225.411 211.924 225.896C214.646 226.284 218.193 226.478 222.566 226.478V232.005H171.108V226.478C174.51 226.381 177.231 226.09 179.272 225.605C181.41 225.12 183.062 224.296 184.228 223.132C185.394 221.968 186.172 220.319 186.56 218.186C186.949 216.052 187.143 213.288 187.143 209.894L187.126 160.269C187.126 154.231 187.074 149.235 186.97 145.28C186.97 141.324 186.814 138.722 186.502 137.473C185.982 135.183 184.422 133.778 181.822 133.257C179.221 132.737 175.321 132.476 170.12 132.476V126.543C175.217 126.335 180.573 125.658 186.19 124.513Z" fill="white"/>
<path d="M36.9953 214.201C37.9697 213.876 38.8899 213.93 39.756 214.309C40.6221 214.688 41.3259 215.5 41.9754 216.745L45.6564 211.061C45.9812 210.574 46.1436 210.141 46.1977 209.654C46.2519 209.221 46.2519 208.68 46.1436 208.084L46.8473 207.868L47.9841 211.44L43.5994 217.828C43.437 218.044 43.3287 218.261 43.2205 218.423C43.1663 218.586 43.1122 218.802 43.0581 218.965C43.0581 219.127 43.0581 219.344 43.1122 219.56C43.1663 219.777 43.2205 219.993 43.3287 220.318L47.1721 219.127C47.6052 218.965 47.9841 218.856 48.2548 218.694C48.5254 218.532 48.742 218.369 48.7961 218.153C48.9044 217.936 48.9044 217.611 48.8502 217.287C48.7961 216.908 48.6878 216.475 48.5254 215.933L49.2291 215.717L51.2862 222.267L50.5824 222.483C50.42 222.05 50.3118 221.725 50.1494 221.455C49.987 221.184 49.8246 221.022 49.6622 220.914C49.4457 220.805 49.2291 220.805 48.9585 220.805C48.6878 220.859 48.3089 220.914 47.8758 221.076L39.2147 223.783C38.7816 223.945 38.4569 224.053 38.1862 224.161C37.9155 224.27 37.7531 224.432 37.6449 224.594C37.5366 224.757 37.4825 224.973 37.4825 225.244C37.4825 225.515 37.5907 225.84 37.6449 226.273L36.9412 226.489L35.1007 220.697C34.5593 218.965 34.4511 217.557 34.83 216.421C35.1548 215.284 35.8585 214.526 36.9953 214.201ZM42.3544 220.643L41.9213 219.344C41.5424 218.099 41.0011 217.233 40.3515 216.799C39.7019 216.366 38.8899 216.258 37.8073 216.583C36.7788 216.908 36.1833 217.341 35.8585 217.99C35.5878 218.586 35.5878 219.398 35.9126 220.426L36.454 222.159C36.5081 222.375 36.6705 222.429 36.887 222.375L42.3544 220.643Z" fill="white"/>
<path d="M38.0238 205.378C37.8614 204.674 37.7532 204.133 37.5366 203.645C37.3742 203.212 37.1577 202.833 36.9412 202.617C36.7246 202.4 36.454 202.238 36.1292 202.184C35.8044 202.13 35.4796 202.13 35.1007 202.184L34.9924 201.534L40.1891 200.506L40.2974 201.155C39.9184 201.209 39.5936 201.372 39.323 201.534C39.0523 201.697 38.8899 201.913 38.7275 202.238C38.6193 202.563 38.511 202.942 38.511 203.429C38.511 203.916 38.5651 204.511 38.7275 205.215L43.0581 204.349C43.4912 204.241 43.816 204.133 44.0866 203.97C44.3573 203.808 44.5197 203.591 44.6279 203.321C44.7362 203.05 44.7903 202.671 44.7903 202.238C44.7903 201.805 44.7362 201.318 44.5738 200.722C44.4655 200.073 44.3031 199.477 44.0866 199.044C43.9242 198.611 43.6536 198.232 43.3829 197.961C43.1122 197.691 42.7333 197.474 42.3003 197.366C41.8672 197.258 41.38 197.204 40.7846 197.15L40.6222 196.446L44.4655 196.013L46.7932 207.868L46.0895 208.03C45.9812 207.597 45.873 207.218 45.7647 206.947C45.6564 206.677 45.494 206.514 45.3316 206.352C45.1693 206.244 44.8986 206.19 44.6279 206.19C44.3573 206.19 43.9783 206.244 43.5453 206.352L34.6135 208.138C34.1804 208.247 33.8015 208.301 33.5308 208.409C33.2602 208.517 33.0437 208.626 32.9354 208.788C32.8271 208.95 32.7189 209.167 32.7189 209.437C32.7189 209.708 32.7189 210.033 32.773 210.466L32.0693 210.628L29.904 199.585L33.2602 198.773L33.3684 199.423C32.8813 199.585 32.5023 199.802 32.1775 200.018C31.8527 200.235 31.6904 200.56 31.528 200.885C31.4197 201.209 31.3114 201.642 31.3656 202.076C31.3656 202.563 31.4738 203.104 31.5821 203.754L32.0693 206.19C32.1234 206.406 32.2317 206.514 32.4482 206.46L38.0238 205.378Z" fill="white"/>
<path d="M28.2259 183.183L28.1718 182.642L32.6106 182.101L32.6647 182.805C31.5279 183.183 30.716 183.833 30.1205 184.699C29.5251 185.565 29.3085 186.594 29.4168 187.731C29.4709 188.543 29.6875 189.192 30.0664 189.788C30.4453 190.383 30.9325 190.87 31.5279 191.249C32.1234 191.628 32.8812 191.899 33.7474 192.061C34.6135 192.223 35.5879 192.223 36.6164 192.169C38.7275 192.007 40.2432 191.412 41.3259 190.437C42.3544 189.463 42.8416 188.164 42.6792 186.54C42.4626 184.05 41.0011 182.534 38.2945 182.047L38.2403 181.235L43.0581 180.802L43.1122 181.505L41.5965 182.101C42.8416 183.346 43.5994 184.97 43.7618 186.864C43.8701 187.947 43.7618 188.976 43.4911 189.896C43.2205 190.816 42.7874 191.628 42.192 192.278C41.5965 192.981 40.8928 193.523 39.9726 193.956C39.0523 194.389 38.0779 194.659 36.9412 194.714C35.7503 194.822 34.6676 194.714 33.6932 194.443C32.7189 194.172 31.7986 193.739 31.0408 193.144C30.2829 192.548 29.6875 191.79 29.2003 190.924C28.7131 190.058 28.4424 189.03 28.3883 187.947C28.3341 187.189 28.3883 186.431 28.5507 185.728C28.7131 185.024 28.9837 184.266 29.4168 183.4L28.2259 183.183Z" fill="white"/>
<path d="M28.0635 170.3C28.1176 169.163 28.3341 168.081 28.7672 167.106C29.2002 166.132 29.7957 165.32 30.4994 164.616C31.2031 163.912 32.0693 163.371 33.0436 162.992C34.018 162.613 35.0465 162.451 36.1292 162.451C37.1577 162.505 38.1862 162.721 39.0523 163.209C39.9725 163.642 40.7304 164.291 41.38 164.995C42.0296 165.753 42.5709 166.619 42.8957 167.647C43.2746 168.622 43.437 169.705 43.3829 170.841C43.3287 171.978 43.1122 173.007 42.6791 173.981C42.2461 174.955 41.7048 175.767 40.9469 176.471C40.2432 177.175 39.4312 177.716 38.4568 178.095C37.5366 178.474 36.5081 178.636 35.4796 178.636C34.3969 178.582 33.3684 178.366 32.4482 177.878C31.5279 177.445 30.7159 176.85 30.0122 176.092C29.3626 175.334 28.8213 174.468 28.4424 173.44C28.1717 172.519 28.0093 171.491 28.0635 170.3ZM42.4085 170.841C42.4626 169.975 42.3002 169.217 42.0296 168.514C41.7589 167.81 41.3258 167.214 40.7845 166.727C40.2432 166.24 39.5936 165.807 38.7816 165.536C37.9697 165.266 37.1035 165.103 36.1292 165.049C35.1007 164.995 34.1263 165.103 33.3143 165.32C32.4482 165.536 31.7445 165.915 31.149 166.348C30.5536 166.781 30.0664 167.377 29.7416 168.026C29.4168 168.73 29.2002 169.488 29.2002 170.354C29.1461 171.22 29.3085 171.978 29.5792 172.682C29.8498 173.385 30.2829 173.981 30.8783 174.468C31.4738 174.955 32.1775 175.388 32.9895 175.659C33.8015 175.93 34.7759 176.092 35.8044 176.146C36.7787 176.2 37.699 176.092 38.511 175.876C39.323 175.659 40.0267 175.28 40.568 174.847C41.1635 174.36 41.5965 173.819 41.9213 173.115C42.192 172.465 42.3544 171.707 42.4085 170.841Z" fill="white"/>
<path d="M41.9213 154.006L34.0722 149.297C33.6391 149.026 33.2602 148.864 33.0436 148.701C32.773 148.593 32.5565 148.485 32.3399 148.485C32.0151 148.431 31.7445 148.485 31.5821 148.701C31.4197 148.918 31.2573 149.297 31.2032 149.838L30.3912 149.73L31.0949 145.074L31.8527 145.183C31.8527 145.507 31.8527 145.724 31.9069 145.941C31.961 146.157 32.0151 146.374 32.0693 146.536C32.1775 146.698 32.2858 146.861 32.4482 147.023C32.6106 147.186 32.8271 147.348 33.0978 147.51L45.0068 154.71L44.8986 155.36L32.1234 158.445C31.6903 158.553 31.3655 158.662 31.0408 158.77C30.716 158.878 30.4994 159.04 30.2829 159.203C30.0664 159.365 29.904 159.582 29.7957 159.798C29.6875 160.015 29.5792 160.286 29.4709 160.664L28.7131 160.556L29.6875 154.277L30.4453 154.385C30.3912 154.764 30.337 155.035 30.337 155.251C30.337 155.468 30.337 155.684 30.3912 155.793C30.4453 155.955 30.4994 156.009 30.6077 156.117C30.716 156.171 30.8242 156.226 30.9325 156.226C31.0949 156.28 31.3114 156.28 31.5821 156.226C31.8527 156.171 32.1775 156.117 32.6647 156.009L41.9213 154.006Z" fill="white"/>
<path d="M39.2147 140.852C39.3771 140.148 39.4854 139.607 39.5395 139.12C39.5936 138.633 39.5395 138.254 39.4312 137.929C39.323 137.604 39.1606 137.333 38.8899 137.171C38.6193 136.955 38.3486 136.846 37.9697 136.738L38.1321 136.088L43.2746 137.442L43.1122 138.091C42.7333 137.983 42.4085 137.983 42.0837 137.983C41.7589 138.037 41.4883 138.145 41.2717 138.362C41.0011 138.579 40.7846 138.903 40.568 139.336C40.3515 139.769 40.135 140.311 39.9726 141.014L44.249 142.151C44.6821 142.26 45.0069 142.314 45.3317 142.26C45.6023 142.205 45.873 142.097 46.1436 141.935C46.3602 141.718 46.5767 141.448 46.7391 141.069C46.9015 140.69 47.0639 140.203 47.2263 139.607C47.3887 138.957 47.4969 138.362 47.5511 137.875C47.6052 137.388 47.5511 136.955 47.3887 136.576C47.2263 136.197 47.0097 135.872 46.685 135.601C46.3602 135.331 45.9271 135.06 45.4399 134.735L45.6564 134.031L49.2833 135.331L46.0895 147.023L45.3858 146.807C45.494 146.374 45.5482 145.995 45.5482 145.724C45.5482 145.453 45.494 145.183 45.3858 145.02C45.2775 144.804 45.1151 144.695 44.8445 144.533C44.5738 144.425 44.249 144.262 43.816 144.154L35.0465 141.826C34.6135 141.718 34.2346 141.61 33.9639 141.61C33.6932 141.556 33.4226 141.61 33.2602 141.718C33.0437 141.826 32.9354 141.989 32.773 142.205C32.6647 142.422 32.5023 142.747 32.3941 143.126L31.6904 142.909L34.6135 132.029L37.9697 132.732L37.8073 133.382C37.266 133.328 36.8329 133.328 36.454 133.436C36.0751 133.544 35.7503 133.707 35.4796 133.923C35.2089 134.194 34.9924 134.519 34.7759 134.952C34.5594 135.385 34.397 135.926 34.2346 136.576L33.585 138.957C33.5308 139.174 33.585 139.282 33.8015 139.336L39.2147 140.852Z" fill="white"/>
<path d="M43.5453 118.496C44.5196 118.874 45.2234 119.47 45.6023 120.282C46.0353 121.094 46.0895 122.231 45.8188 123.584L52.2064 121.419C52.7477 121.256 53.1808 120.986 53.5056 120.661C53.8304 120.336 54.1552 119.903 54.4258 119.416L55.1295 119.686L53.7762 123.205L46.3601 125.424C46.0895 125.479 45.8729 125.587 45.7105 125.695C45.5482 125.803 45.3858 125.912 45.2775 126.02C45.1692 126.128 45.061 126.291 44.9527 126.507C44.8444 126.724 44.7362 126.94 44.6279 127.211L48.4172 128.672C48.8502 128.835 49.2291 128.943 49.5539 128.997C49.8787 129.051 50.1494 128.997 50.3659 128.889C50.5824 128.781 50.799 128.564 50.9614 128.239C51.1238 127.915 51.3403 127.481 51.5568 126.94L52.2605 127.211L49.7163 133.707L49.0126 133.436C49.175 133.003 49.2833 132.678 49.2833 132.353C49.3374 132.083 49.2833 131.812 49.2291 131.65C49.175 131.487 48.9585 131.271 48.7419 131.108C48.4713 130.946 48.1465 130.783 47.7134 130.621L39.2688 127.319C38.8358 127.157 38.511 127.048 38.2403 126.994C37.9697 126.94 37.699 126.94 37.5366 126.994C37.3742 127.048 37.1577 127.211 36.9953 127.427C36.8329 127.644 36.6705 127.969 36.5081 128.348L35.8044 128.077L38.0238 122.393C38.6734 120.715 39.4854 119.524 40.4597 118.874C41.38 118.225 42.4626 118.062 43.5453 118.496ZM43.7077 126.886L44.1948 125.587C44.682 124.396 44.7903 123.367 44.5738 122.61C44.3572 121.852 43.7618 121.256 42.7333 120.877C41.7589 120.498 40.9469 120.444 40.3515 120.769C39.756 121.094 39.2688 121.743 38.8899 122.718L38.2403 124.396C38.1862 124.612 38.2403 124.721 38.4027 124.829L43.7077 126.886Z" fill="white"/>
<path d="M44.3572 113.461C43.9783 113.461 43.6535 113.515 43.3829 113.569C43.1122 113.624 42.8957 113.678 42.6792 113.786C42.4626 113.894 42.3002 114.003 42.192 114.165C42.0837 114.327 41.9213 114.49 41.813 114.76L41.1635 114.436L43.9783 108.968L44.6279 109.293C44.3572 109.889 44.1407 110.322 44.1407 110.592C44.0866 110.863 44.1949 111.079 44.4114 111.188C44.6279 111.296 45.061 111.35 45.6564 111.296L51.611 110.971L51.6651 110.917L49.3915 107.29C48.9585 106.586 48.5796 106.099 48.3089 105.72C48.0382 105.396 47.7676 105.179 47.551 105.017C47.3345 104.908 47.118 104.908 46.9556 105.017C46.7932 105.125 46.5767 105.396 46.3601 105.829L45.7106 105.504L47.7676 101.552L48.4172 101.877C48.3089 102.093 48.2006 102.364 48.2006 102.581C48.1465 102.797 48.2006 103.068 48.3089 103.393C48.4172 103.717 48.5796 104.096 48.8502 104.529C49.0667 104.962 49.4457 105.504 49.8246 106.208L52.9643 111.188L55.0213 112.27C55.5626 112.541 56.0498 112.758 56.4287 112.92C56.8076 113.028 57.0783 113.082 57.349 113.082C57.6196 113.028 57.8362 112.92 57.9985 112.703C58.2151 112.487 58.3775 112.162 58.594 111.729L59.2436 112.054L56.3746 117.684L55.725 117.359C55.9415 116.926 56.0498 116.601 56.1581 116.33C56.2122 116.06 56.2122 115.789 56.1039 115.572C55.9957 115.356 55.7791 115.139 55.5085 114.923C55.1837 114.706 54.8048 114.49 54.2634 114.219L52.1523 113.136L44.3572 113.461Z" fill="white"/>
<path d="M152.459 37.9469C152.676 38.9754 152.784 39.8415 152.73 40.6535C152.676 41.4655 152.513 42.1692 152.188 42.7647C151.864 43.3601 151.376 43.9014 150.727 44.2804C150.077 44.7134 149.265 44.9841 148.291 45.2006C147.371 45.4171 146.505 45.4713 145.801 45.4713C145.043 45.4171 144.393 45.2547 143.852 44.93C143.311 44.6052 142.824 44.118 142.445 43.4684C142.066 42.8188 141.795 42.0068 141.524 41.0324L140.442 35.9982C140.225 35.0779 140.063 34.3201 139.9 33.8329C139.738 33.3457 139.522 32.9668 139.251 32.8044C139.088 32.6961 138.818 32.5878 138.547 32.5878C138.277 32.5878 137.898 32.642 137.465 32.7502L137.302 32.0465L143.798 30.6391L143.96 31.3428C143.527 31.4511 143.203 31.5593 142.932 31.6676C142.661 31.7758 142.499 31.9382 142.391 32.2089C142.282 32.4796 142.228 32.8585 142.282 33.3998C142.336 33.887 142.499 34.6448 142.661 35.5651L143.798 40.7618C143.96 41.4114 144.123 41.9527 144.393 42.4399C144.61 42.9271 144.935 43.306 145.314 43.5767C145.693 43.8473 146.126 44.0097 146.667 44.118C147.208 44.1721 147.804 44.1721 148.507 44.0097C149.753 43.739 150.673 43.1977 151.106 42.3316C151.593 41.4655 151.701 40.3829 151.376 39.0296L150.348 34.4283C150.077 33.2915 149.861 32.4254 149.644 31.8841C149.428 31.3428 149.157 30.9639 148.886 30.7473C148.67 30.6391 148.453 30.5849 148.129 30.5849C147.858 30.5849 147.533 30.6391 147.1 30.7473L147.154 29.9354L152.676 28.7444L152.838 29.4482C152.405 29.5564 152.08 29.6647 151.864 29.773C151.647 29.8812 151.431 30.0977 151.322 30.3143C151.214 30.6391 151.16 31.0721 151.214 31.6676C151.268 32.263 151.431 33.075 151.647 34.1035L152.459 37.9469Z" fill="white"/>
<path d="M169.511 42.2775L159.226 30.9639H159.172L159.929 39.2461C159.984 39.8957 160.038 40.3829 160.146 40.7618C160.2 41.1407 160.362 41.4114 160.471 41.6279C160.579 41.8444 160.85 41.9527 161.066 42.0068C161.337 42.061 161.662 42.061 162.095 42.0068L162.149 42.7647L156.952 43.2519L156.898 42.494C157.331 42.4399 157.71 42.3857 157.981 42.2775C158.251 42.1692 158.468 42.0068 158.576 41.8444C158.684 41.682 158.793 41.3572 158.793 40.9783C158.793 40.5994 158.793 40.1122 158.738 39.5167L157.981 31.6135C157.927 31.0721 157.872 30.6391 157.818 30.2601C157.764 29.9354 157.602 29.6106 157.493 29.4482C157.331 29.2316 157.115 29.1234 156.844 29.0692C156.573 29.0151 156.248 28.961 155.815 29.0151L155.761 28.2573L159.605 27.9325L169.078 38.4882H169.132L168.428 30.8556C168.374 30.206 168.32 29.7188 168.212 29.3399C168.157 28.961 167.995 28.6903 167.887 28.4738C167.724 28.2573 167.508 28.149 167.291 28.0949C167.075 28.0407 166.696 28.0407 166.263 28.0949L166.209 27.337L171.405 26.8498L171.46 27.6077C171.026 27.6618 170.648 27.7159 170.377 27.8242C170.106 27.9325 169.89 28.0949 169.781 28.2573C169.619 28.4738 169.565 28.7444 169.565 29.1234C169.565 29.5023 169.565 29.9895 169.619 30.5849L170.648 42.1692L169.511 42.2775Z" fill="white"/>
<path d="M178.28 38.3258C178.28 38.9754 178.28 39.4626 178.334 39.8415C178.388 40.2204 178.497 40.4911 178.605 40.7076C178.767 40.9242 178.984 41.0324 179.255 41.1407C179.525 41.1948 179.904 41.2489 180.337 41.2489V42.0068L174.004 41.8985V41.1407C174.437 41.1407 174.816 41.0865 175.086 41.0324C175.357 40.9783 175.574 40.8159 175.736 40.6535C175.898 40.437 176.007 40.1663 176.061 39.8415C176.115 39.4626 176.169 38.9754 176.169 38.3799L176.386 30.4767C176.386 29.9353 176.386 29.5023 176.331 29.1233C176.277 28.7444 176.223 28.4738 176.061 28.2572C175.952 28.0407 175.736 27.8783 175.465 27.8242C175.195 27.7159 174.87 27.6618 174.437 27.6618V26.9039L180.337 27.0122V27.77C179.904 27.77 179.579 27.8242 179.309 27.9324C179.038 28.0407 178.876 28.149 178.713 28.3655C178.551 28.582 178.497 28.8527 178.443 29.2316C178.388 29.6105 178.334 30.0977 178.334 30.6932L178.28 38.3258Z" fill="white"/>
<path d="M197.281 31.9383L196.469 31.8841C196.469 31.3428 196.414 30.8556 196.306 30.4767C196.198 30.0978 196.036 29.773 195.765 29.5564C195.494 29.3399 195.224 29.1234 194.79 29.0151C194.412 28.9069 193.924 28.7986 193.383 28.7445C192.896 28.6903 192.517 28.6903 192.246 28.6903C191.976 28.6903 191.705 28.6903 191.543 28.7445C191.38 28.7986 191.272 28.8527 191.218 28.9069C191.164 28.961 191.11 29.0693 191.11 29.1775L190.189 39.5709C190.135 40.0039 190.135 40.3287 190.189 40.6535C190.243 40.9783 190.298 41.1948 190.46 41.4114C190.622 41.6279 190.839 41.7903 191.164 41.8986C191.488 42.0068 191.922 42.1151 192.463 42.1692L192.409 42.9271L185.047 42.2775L185.101 41.5196C185.642 41.5738 186.075 41.5196 186.454 41.4655C186.779 41.4114 187.05 41.3031 187.266 41.0866C187.483 40.9242 187.591 40.7077 187.699 40.3829C187.807 40.0581 187.862 39.7333 187.862 39.3002L188.836 28.9069C188.836 28.7986 188.836 28.6903 188.782 28.6362C188.728 28.5821 188.674 28.4738 188.511 28.4197C188.403 28.3655 188.186 28.3114 187.97 28.2573C187.699 28.2031 187.374 28.2031 186.995 28.149C186.508 28.0949 186.021 28.0949 185.588 28.0949C185.155 28.0949 184.776 28.149 184.451 28.3114C184.126 28.4738 183.856 28.7445 183.585 29.1234C183.369 29.5023 183.206 30.0436 183.152 30.6932L182.448 30.6391L182.773 26.9581L197.443 28.2573L197.281 31.9383Z" fill="white"/>
<path d="M200.907 31.2887C200.799 30.9097 200.637 30.6391 200.528 30.3684C200.42 30.1519 200.258 29.9354 200.149 29.773C199.987 29.6106 199.825 29.5023 199.662 29.394C199.5 29.2858 199.229 29.2316 199.013 29.1775L199.175 28.4738L205.184 29.6647L205.021 30.3684C204.372 30.2601 203.939 30.206 203.668 30.2601C203.397 30.3143 203.235 30.4225 203.181 30.6932C203.127 30.9639 203.181 31.3969 203.397 31.9382L205.346 37.568H205.4L208.269 34.3742C208.811 33.7787 209.19 33.2915 209.46 32.9126C209.731 32.5337 209.839 32.263 209.893 31.9924C209.947 31.7758 209.893 31.5593 209.731 31.4511C209.568 31.3428 209.244 31.1804 208.811 31.1263L208.973 30.4225L213.358 31.2887L213.195 31.9924C212.925 31.9382 212.708 31.9382 212.437 31.9382C212.221 31.9924 211.95 32.1006 211.68 32.263C211.409 32.4254 211.084 32.6961 210.759 33.075C210.38 33.4539 209.947 33.887 209.46 34.4825L205.509 38.8672L205.076 41.1407C204.967 41.7903 204.859 42.2775 204.859 42.6564C204.859 43.0353 204.859 43.3601 204.967 43.5767C205.076 43.7932 205.238 44.0097 205.509 44.118C205.779 44.2262 206.104 44.3345 206.591 44.4428L206.429 45.1465L200.258 43.9014L200.42 43.1977C200.853 43.306 201.232 43.306 201.557 43.306C201.828 43.306 202.098 43.1977 202.261 43.0353C202.423 42.8729 202.585 42.6023 202.748 42.2775C202.856 41.9527 202.964 41.4655 203.127 40.87L203.614 38.5424L200.907 31.2887Z" fill="white"/>
<path d="M283.459 89.9137C283.08 90.2385 282.755 90.5092 282.593 90.7257C282.376 90.9423 282.268 91.2129 282.268 91.4836C282.268 91.7542 282.322 92.0249 282.539 92.3497C282.755 92.6745 282.972 93.0534 283.296 93.5406L282.701 93.9737L278.425 88.5604L279.02 88.1274C279.291 88.4522 279.561 88.7228 279.778 88.9394C279.994 89.1018 280.211 89.21 280.427 89.2642C280.644 89.2642 280.861 89.21 281.131 89.1018C281.402 88.9394 281.673 88.777 282.051 88.4522L289.197 82.8224C289.576 82.5518 289.846 82.2811 290.009 82.0646C290.225 81.8481 290.334 81.6315 290.334 81.415C290.388 81.1985 290.334 80.9819 290.225 80.7654C290.117 80.5489 289.955 80.2241 289.684 79.8993L290.28 79.4662L297.263 88.2898L294.448 90.7799L294.015 90.2385C294.394 89.8055 294.664 89.4266 294.881 89.1018C295.043 88.7228 295.151 88.398 295.097 88.0191C295.097 87.6402 294.935 87.2613 294.718 86.8282C294.502 86.3952 294.177 85.908 293.744 85.3666L292.228 83.4179C292.066 83.2555 291.958 83.2014 291.741 83.3638L287.14 86.9906C287.519 87.4778 287.898 87.8567 288.222 88.1815C288.547 88.5063 288.872 88.7228 289.197 88.8311C289.522 88.9394 289.846 88.9935 290.171 88.8852C290.496 88.777 290.875 88.6687 291.308 88.3439L291.741 88.8852L287.248 92.4038L286.815 91.8625C287.14 91.4836 287.411 91.1588 287.573 90.834C287.735 90.5092 287.789 90.1844 287.789 89.8596C287.735 89.5348 287.627 89.1559 287.411 88.777C287.194 88.3981 286.869 87.9109 286.49 87.4237L283.459 89.9137Z" fill="white"/>
<path d="M295.476 97.6546C295.855 98.2501 296.18 98.7373 296.559 99.0621C296.884 99.441 297.208 99.6575 297.479 99.8199C297.804 99.9823 298.075 99.9823 298.399 99.9282C298.724 99.8741 299.049 99.7658 299.374 99.5493L299.753 100.145L295.26 103.014L294.881 102.418C295.206 102.202 295.476 101.985 295.639 101.715C295.801 101.444 295.909 101.173 295.909 100.848C295.909 100.524 295.855 100.091 295.639 99.6575C295.476 99.2245 295.206 98.6831 294.772 98.0336L291.146 100.47C290.767 100.686 290.496 100.957 290.334 101.173C290.171 101.39 290.063 101.66 290.063 101.985C290.063 102.31 290.117 102.635 290.28 103.014C290.442 103.393 290.713 103.88 291.037 104.367C291.416 104.962 291.741 105.396 292.12 105.774C292.445 106.153 292.824 106.37 293.203 106.532C293.582 106.695 293.961 106.749 294.394 106.695C294.827 106.641 295.314 106.532 295.855 106.316L296.234 106.965L292.824 108.806L286.328 98.629L286.977 98.2501C287.248 98.629 287.465 98.8997 287.681 99.1162C287.898 99.3327 288.114 99.441 288.331 99.4951C288.547 99.5493 288.764 99.4951 289.034 99.3869C289.305 99.2786 289.63 99.1162 290.009 98.8455L297.641 93.9737C298.02 93.703 298.345 93.4865 298.508 93.3241C298.724 93.1617 298.832 92.9451 298.941 92.7286C298.995 92.5121 298.995 92.2956 298.887 92.0249C298.778 91.7542 298.67 91.4836 298.453 91.1046L299.103 90.7257L305.166 100.199L302.351 102.202L301.972 101.552C302.351 101.227 302.676 100.848 302.838 100.524C303.001 100.199 303.109 99.8741 303.109 99.4951C303.109 99.1162 303.001 98.7373 302.838 98.3042C302.676 97.8712 302.405 97.384 302.026 96.7885L300.673 94.6774C300.565 94.515 300.402 94.4608 300.24 94.5691L295.476 97.6546Z" fill="white"/>
<path d="M299.32 121.473L293.69 110.213L294.339 109.889C294.556 110.267 294.772 110.592 294.935 110.809C295.097 111.025 295.314 111.188 295.53 111.242C295.747 111.296 295.963 111.296 296.288 111.242C296.559 111.134 296.884 111.025 297.317 110.809L305.437 106.749C305.87 106.532 306.14 106.37 306.411 106.208C306.627 106.045 306.79 105.883 306.898 105.666C307.006 105.45 307.006 105.233 306.952 104.963C306.898 104.692 306.79 104.367 306.627 103.988L307.277 103.663L309.929 108.968L309.28 109.293C309.063 108.914 308.901 108.643 308.739 108.427C308.576 108.21 308.36 108.102 308.143 108.048C307.927 107.994 307.656 108.048 307.385 108.102C307.115 108.21 306.736 108.373 306.303 108.589L298.778 112.379C298.291 112.649 297.912 112.866 297.641 113.136C297.371 113.407 297.208 113.678 297.154 114.003C297.1 114.327 297.154 114.706 297.263 115.139C297.371 115.572 297.641 116.06 297.912 116.709C298.237 117.359 298.562 117.9 298.887 118.333C299.211 118.766 299.536 119.037 299.861 119.253C300.186 119.47 300.619 119.578 301.052 119.578C301.485 119.578 302.026 119.524 302.622 119.362L302.946 120.011L299.32 121.473Z" fill="white"/>
<path d="M304.246 134.41L299.807 122.61L300.51 122.339C300.673 122.772 300.835 123.097 300.998 123.313C301.16 123.53 301.322 123.692 301.539 123.8C301.755 123.909 301.972 123.909 302.243 123.855C302.513 123.8 302.892 123.692 303.325 123.53L311.824 120.336C312.257 120.174 312.582 120.011 312.853 119.903C313.123 119.795 313.286 119.578 313.394 119.416C313.502 119.253 313.556 118.983 313.502 118.766C313.448 118.495 313.394 118.171 313.286 117.792L313.989 117.521L316.1 123.043L315.397 123.313C315.234 122.934 315.072 122.61 314.91 122.393C314.747 122.176 314.585 122.014 314.368 121.96C314.152 121.906 313.935 121.906 313.61 121.96C313.34 122.014 312.961 122.122 312.474 122.339L304.624 125.316C304.137 125.533 303.704 125.695 303.434 125.966C303.163 126.182 302.946 126.453 302.892 126.778C302.784 127.103 302.838 127.481 302.892 127.914C303.001 128.348 303.163 128.889 303.379 129.538C303.65 130.242 303.921 130.783 304.137 131.217C304.408 131.65 304.679 132.029 305.003 132.245C305.328 132.516 305.707 132.624 306.14 132.678C306.573 132.732 307.115 132.732 307.71 132.624L307.981 133.328L304.246 134.41Z" fill="white"/>
<path d="M321.46 139.824C321.73 140.96 321.784 142.043 321.622 143.071C321.46 144.1 321.135 145.074 320.648 145.941C320.16 146.807 319.457 147.564 318.645 148.214C317.833 148.864 316.858 149.297 315.83 149.567C314.801 149.838 313.773 149.838 312.799 149.676C311.824 149.513 310.904 149.134 310.038 148.593C309.226 148.052 308.468 147.348 307.873 146.482C307.277 145.616 306.79 144.641 306.519 143.559C306.249 142.476 306.194 141.393 306.357 140.311C306.519 139.228 306.844 138.308 307.331 137.442C307.818 136.576 308.468 135.818 309.28 135.168C310.092 134.519 310.958 134.086 311.987 133.869C313.069 133.598 314.098 133.544 315.126 133.761C316.155 133.923 317.075 134.302 317.941 134.843C318.807 135.385 319.565 136.088 320.16 136.955C320.702 137.712 321.189 138.687 321.46 139.824ZM307.548 143.234C307.764 144.046 308.089 144.804 308.522 145.345C308.955 145.941 309.551 146.374 310.2 146.752C310.85 147.131 311.608 147.294 312.42 147.348C313.232 147.402 314.152 147.294 315.126 147.077C316.155 146.807 317.021 146.482 317.779 146.049C318.537 145.616 319.132 145.074 319.619 144.479C320.106 143.883 320.377 143.18 320.539 142.422C320.702 141.664 320.648 140.906 320.431 140.04C320.215 139.228 319.89 138.47 319.403 137.929C318.915 137.333 318.32 136.9 317.67 136.576C316.967 136.251 316.209 136.088 315.343 136.034C314.477 135.98 313.502 136.088 312.528 136.359C311.553 136.576 310.742 136.955 310.038 137.388C309.334 137.821 308.739 138.362 308.306 138.957C307.873 139.553 307.602 140.203 307.494 140.96C307.277 141.664 307.331 142.422 307.548 143.234Z" fill="white"/>
<path d="M313.34 167.269L322.055 169.488C322.596 169.596 322.975 169.705 323.3 169.759C323.625 169.813 323.841 169.813 324.112 169.813C324.437 169.759 324.653 169.65 324.762 169.434C324.87 169.217 324.87 168.838 324.816 168.297L325.574 168.243L326.007 172.952L325.249 173.007C325.195 172.411 325.032 171.978 324.762 171.707C324.491 171.437 324.058 171.22 323.462 171.058L310.2 167.431L310.146 166.727L320.81 161.964L309.388 158.878L309.334 158.174L320.106 153.086C320.702 152.815 321.189 152.545 321.622 152.328C322.001 152.112 322.326 151.895 322.542 151.624C322.759 151.408 322.921 151.137 322.975 150.867C323.029 150.596 323.084 150.271 323.029 149.838L323.787 149.784L324.383 156.117L323.625 156.171C323.571 155.522 323.462 155.035 323.3 154.818C323.138 154.548 322.921 154.439 322.596 154.493C322.434 154.493 322.217 154.548 322.001 154.602C321.784 154.656 321.514 154.764 321.243 154.926L312.528 158.716L319.457 160.448C319.998 160.556 320.485 160.719 320.918 160.827C321.351 160.935 321.784 161.043 322.109 161.152C322.488 160.935 322.759 160.719 322.975 160.556C323.192 160.394 323.408 160.231 323.517 160.069C323.625 159.907 323.733 159.744 323.787 159.582C323.841 159.419 323.841 159.257 323.841 159.04L324.599 158.986L325.141 164.941L324.383 164.995C324.329 164.616 324.329 164.291 324.274 164.075C324.22 163.858 324.166 163.696 324.112 163.533C324.058 163.425 323.95 163.317 323.841 163.317C323.733 163.263 323.625 163.263 323.462 163.263C323.246 163.263 323.029 163.317 322.759 163.425C322.488 163.533 322.163 163.642 321.73 163.804L313.34 167.269Z" fill="white"/>
<path d="M315.234 174.739V175.443C314.639 175.497 314.098 175.659 313.665 175.93C313.177 176.146 312.798 176.471 312.474 176.85C312.149 177.229 311.878 177.662 311.662 178.149C311.445 178.636 311.391 179.178 311.337 179.773C311.283 180.747 311.499 181.505 311.932 182.047C312.365 182.642 312.961 182.913 313.773 182.967C314.098 182.967 314.422 182.913 314.693 182.804C314.964 182.696 315.234 182.534 315.505 182.263C315.776 181.993 316.046 181.668 316.263 181.235C316.534 180.802 316.804 180.26 317.129 179.611C317.508 178.799 317.887 178.149 318.212 177.608C318.536 177.066 318.915 176.633 319.24 176.309C319.619 175.984 319.998 175.767 320.377 175.659C320.756 175.551 321.243 175.497 321.73 175.497C322.326 175.497 322.867 175.659 323.354 175.876C323.841 176.092 324.274 176.417 324.653 176.796C325.032 177.175 325.303 177.662 325.465 178.203C325.628 178.745 325.736 179.34 325.736 179.99C325.736 180.585 325.628 181.072 325.411 181.559C325.195 182.047 324.924 182.534 324.491 183.021L325.357 183.562V183.995L321.46 184.104V183.4C322.542 183.129 323.354 182.696 323.896 182.101C324.437 181.505 324.707 180.802 324.762 179.99C324.762 179.178 324.599 178.582 324.22 178.095C323.841 177.608 323.3 177.391 322.65 177.337C322.326 177.337 322.055 177.391 321.784 177.445C321.514 177.554 321.297 177.716 321.027 177.933C320.81 178.149 320.539 178.474 320.323 178.853C320.106 179.232 319.836 179.665 319.565 180.26C319.132 181.235 318.699 181.992 318.32 182.642C317.941 183.292 317.562 183.779 317.183 184.104C316.804 184.483 316.425 184.699 315.992 184.861C315.559 185.024 315.126 185.078 314.639 185.078C313.989 185.078 313.394 184.916 312.853 184.645C312.311 184.374 311.878 183.995 311.499 183.508C311.12 183.021 310.85 182.48 310.633 181.83C310.417 181.181 310.362 180.477 310.362 179.665C310.362 178.907 310.525 178.257 310.741 177.662C310.958 177.066 311.337 176.471 311.824 175.876L310.904 175.28V174.847L315.234 174.739Z" fill="white"/>
<path d="M311.499 200.993C311.012 200.939 310.633 200.885 310.308 200.885C309.984 200.885 309.767 200.939 309.551 201.101C309.388 201.209 309.226 201.426 309.117 201.697C309.009 201.967 308.901 202.346 308.847 202.779L308.089 202.671L308.955 196.446L309.713 196.554C309.659 196.987 309.659 197.366 309.659 197.637C309.659 197.907 309.767 198.178 309.875 198.34C309.984 198.503 310.2 198.665 310.471 198.719C310.741 198.773 311.12 198.882 311.553 198.936L315.722 199.531L316.804 191.736L312.744 191.141C312.257 191.087 311.878 191.033 311.553 191.033C311.229 191.033 311.012 191.087 310.796 191.249C310.633 191.357 310.471 191.574 310.363 191.845C310.254 192.115 310.146 192.494 310.092 192.927L309.334 192.819L310.2 186.594L310.958 186.702C310.904 187.135 310.904 187.514 310.904 187.785C310.904 188.055 311.012 188.326 311.12 188.488C311.229 188.651 311.445 188.813 311.716 188.867C311.986 188.976 312.365 189.03 312.798 189.084L321.784 190.383C322.217 190.437 322.596 190.491 322.867 190.491C323.138 190.491 323.408 190.437 323.571 190.329C323.733 190.221 323.896 190.058 324.004 189.788C324.112 189.517 324.166 189.192 324.274 188.813L325.032 188.921L324.22 194.768L323.462 194.659C323.517 194.226 323.517 193.902 323.462 193.631C323.408 193.36 323.354 193.144 323.192 192.981C323.029 192.819 322.813 192.711 322.542 192.602C322.272 192.494 321.839 192.44 321.351 192.386L317.67 191.845L316.588 199.64L320.431 200.181C320.864 200.235 321.243 200.289 321.514 200.289C321.784 200.289 322.001 200.235 322.217 200.127C322.38 200.019 322.542 199.856 322.651 199.585C322.759 199.315 322.813 198.99 322.921 198.611L323.679 198.719L322.867 204.566L322.109 204.457C322.163 204.024 322.163 203.699 322.109 203.429C322.055 203.158 322.001 202.942 321.839 202.779C321.676 202.617 321.46 202.509 321.189 202.4C320.918 202.292 320.485 202.238 319.998 202.184L311.499 200.993Z" fill="white"/>
<path d="M310.2 208.95C309.551 208.788 309.063 208.68 308.685 208.68C308.306 208.626 307.981 208.68 307.764 208.788C307.548 208.896 307.331 209.059 307.223 209.329C307.115 209.6 306.952 209.925 306.844 210.358L306.14 210.195L307.602 204.078L308.306 204.241C308.197 204.674 308.143 205.053 308.197 205.323C308.197 205.594 308.306 205.865 308.414 206.027C308.576 206.244 308.793 206.406 309.172 206.514C309.496 206.623 309.984 206.785 310.579 206.947L318.266 208.788C318.807 208.896 319.24 209.004 319.619 209.059C319.998 209.113 320.269 209.059 320.485 209.004C320.702 208.896 320.918 208.788 321.027 208.517C321.189 208.301 321.297 207.976 321.406 207.597L322.109 207.759L320.702 213.497L319.998 213.335C320.106 212.902 320.106 212.577 320.106 212.307C320.052 212.036 319.998 211.819 319.782 211.657C319.619 211.495 319.349 211.332 318.97 211.17C318.591 211.007 318.158 210.899 317.562 210.791L310.2 208.95Z" fill="white"/>
<path d="M312.799 226.489C312.149 226.273 311.608 226.002 311.12 225.623C310.687 225.244 310.363 224.757 310.146 224.216C309.93 223.674 309.875 222.971 309.875 222.159C309.93 221.347 310.092 220.48 310.417 219.398L310.958 217.72L307.385 216.529C306.952 216.366 306.519 216.312 306.249 216.258C305.978 216.204 305.653 216.258 305.437 216.366C305.22 216.475 305.004 216.691 304.841 217.016C304.679 217.341 304.516 217.774 304.3 218.315L303.596 218.099L305.707 211.549L306.411 211.765C306.303 212.198 306.194 212.577 306.194 212.848C306.194 213.118 306.194 213.389 306.303 213.552C306.411 213.768 306.573 213.93 306.844 214.039C307.115 214.201 307.439 214.309 307.873 214.472L316.588 217.395C317.021 217.557 317.4 217.611 317.67 217.666C317.941 217.72 318.212 217.666 318.374 217.611C318.591 217.557 318.753 217.395 318.861 217.124C319.024 216.908 319.132 216.583 319.294 216.204L319.998 216.421L318.104 222.213C317.562 223.891 316.804 225.136 315.884 225.84C314.964 226.652 313.935 226.868 312.799 226.489ZM311.932 218.045L311.499 219.344C311.12 220.589 311.012 221.563 311.337 222.321C311.608 223.079 312.311 223.62 313.394 223.999C314.423 224.324 315.289 224.324 315.884 223.999C316.48 223.674 316.967 223.025 317.292 221.996L317.833 220.318C317.887 220.102 317.833 219.993 317.616 219.885L311.932 218.045Z" fill="white"/>
</g>
</svg>
